<svg class="svg-icon" style="width: 1em; height: 1em;vertical-align: middle;fill: currentColor;overflow: hidden;" viewBox="0 0 1024 1024" version="1.1" xmlns="http://www.w3.org/2000/svg"><path d="M902.290286 73.142857C929.133714 73.142857 950.857143 94.866286 950.857143 121.709714v780.580572c0 26.843429-21.723429 48.566857-48.566857 48.566857h-223.414857v-340.004572h113.700571l17.152-132.571428h-130.852571v-84.553143c0-38.290286 10.276571-64 65.718857-64L814.299429 329.142857V210.870857c-11.995429-1.718857-53.723429-5.156571-101.705143-5.156571-101.156571 0-170.861714 61.696-170.861715 174.848v97.718857H427.446857v132.571428h114.285714V950.857143H121.746286a48.530286 48.530286 0 0 1-48.566857-48.566857V121.709714C73.179429 94.866286 94.902857 73.142857 121.746286 73.142857h780.580571z" fill="" /></svg>